<svg width="36" height="32" viewBox="0 0 36 32" fill="none" xmlns="http://www.w3.org/2000/svg">
<path d="M3.6788 31.2621H31.3612C34.1919 31.2621 35.9566 28.1924 34.5412 25.7477L20.7 1.83354C19.2846 -0.61118 15.7554 -0.61118 14.34 1.83354L0.498818 25.7477C-0.91655 28.1924 0.848065 31.2621 3.6788 31.2621ZM17.52 18.3951C16.509 18.3951 15.6819 17.568 15.6819 16.557V12.8807C15.6819 11.8698 16.509 11.0426 17.52 11.0426C18.531 11.0426 19.3581 11.8698 19.3581 12.8807V16.557C19.3581 17.568 18.531 18.3951 17.52 18.3951ZM19.3581 25.7477H15.6819V22.0714H19.3581V25.7477Z" fill="white" fill-opacity="0.8"/>
</svg>
