<svg width="26" height="26" viewBox="0 0 26 26" fill="none" xmlns="http://www.w3.org/2000/svg">
<path d="M12.5099 4.69125C7.29743 4.69125 2.84596 7.93343 1.04243 12.51C2.84596 17.0866 7.29743 20.3288 12.5099 20.3288C17.7224 20.3288 22.1739 17.0866 23.9774 12.51C22.1739 7.93343 17.7224 4.69125 12.5099 4.69125ZM12.5099 17.7225C9.63263 17.7225 7.29743 15.3873 7.29743 12.51C7.29743 9.6327 9.63263 7.2975 12.5099 7.2975C15.3872 7.2975 17.7224 9.6327 17.7224 12.51C17.7224 15.3873 15.3872 17.7225 12.5099 17.7225ZM12.5099 9.3825C10.7794 9.3825 9.38243 10.7795 9.38243 12.51C9.38243 14.2406 10.7794 15.6375 12.5099 15.6375C14.2405 15.6375 15.6374 14.2406 15.6374 12.51C15.6374 10.7795 14.2405 9.3825 12.5099 9.3825Z" fill="black" fill-opacity="0.3"/>
</svg>
