<svg width="30" height="30" viewBox="0 0 30 30" fill="none" xmlns="http://www.w3.org/2000/svg">
<circle cx="15" cy="15" r="15" fill="#EFEFEF" fill-opacity="0.99"/>
<path d="M18.8699 11.72H18.1549V10.29C18.1549 8.31661 16.5533 6.71501 14.5799 6.71501C12.6065 6.71501 11.0049 8.31661 11.0049 10.29V11.72H10.2899C9.50342 11.72 8.85992 12.3635 8.85992 13.15V20.3C8.85992 21.0865 9.50342 21.73 10.2899 21.73H18.8699C19.6564 21.73 20.2999 21.0865 20.2999 20.3V13.15C20.2999 12.3635 19.6564 11.72 18.8699 11.72ZM14.5799 18.155C13.7934 18.155 13.1499 17.5115 13.1499 16.725C13.1499 15.9385 13.7934 15.295 14.5799 15.295C15.3664 15.295 16.0099 15.9385 16.0099 16.725C16.0099 17.5115 15.3664 18.155 14.5799 18.155ZM12.4349 11.72V10.29C12.4349 9.10311 13.393 8.14501 14.5799 8.14501C15.7668 8.14501 16.7249 9.10311 16.7249 10.29V11.72H12.4349Z" fill="black" fill-opacity="0.3"/>
</svg>
