<svg width="23" height="23" viewBox="0 0 23 23" fill="none" xmlns="http://www.w3.org/2000/svg">
<path d="M21.5148 0.521356C20.8645 -0.128969 19.814 -0.128969 19.1637 0.521356L11.0096 8.65876L2.85552 0.504681C2.2052 -0.145644 1.15467 -0.145644 0.504345 0.504681C-0.14598 1.15501 -0.14598 2.20553 0.504345 2.85586L8.65842 11.0099L0.504345 19.164C-0.14598 19.8143 -0.14598 20.8649 0.504345 21.5152C1.15467 22.1655 2.2052 22.1655 2.85552 21.5152L11.0096 13.3611L19.1637 21.5152C19.814 22.1655 20.8645 22.1655 21.5148 21.5152C22.1652 20.8649 22.1652 19.8143 21.5148 19.164L13.3608 11.0099L21.5148 2.85586C22.1485 2.22221 22.1485 1.15501 21.5148 0.521356Z" fill="white" fill-opacity="0.85"/>
</svg>
