<svg width="30" height="30" viewBox="0 0 30 30" fill="none" xmlns="http://www.w3.org/2000/svg">
<circle cx="15" cy="15" r="15" fill="#EFEFEF"/>
<path d="M14.8605 14.0105C16.8353 14.0105 18.4348 12.411 18.4348 10.4362C18.4348 8.46141 16.8353 6.86192 14.8605 6.86192C12.8857 6.86192 11.2862 8.46141 11.2862 10.4362C11.2862 12.411 12.8857 14.0105 14.8605 14.0105ZM14.8605 15.7976C12.4747 15.7976 7.71193 16.995 7.71193 19.3719V20.2655C7.71193 20.757 8.11404 21.1591 8.6055 21.1591H21.1155C21.607 21.1591 22.0091 20.757 22.0091 20.2655V19.3719C22.0091 16.995 17.2463 15.7976 14.8605 15.7976Z" fill="black" fill-opacity="0.3"/>
</svg>
