<svg width="34" height="34" viewBox="0 0 34 34" fill="none" xmlns="http://www.w3.org/2000/svg">
<path d="M17.0192 0.336815C7.81006 0.336815 0.335938 7.81094 0.335938 17.0201C0.335938 26.2293 7.81006 33.7034 17.0192 33.7034C26.2284 33.7034 33.7026 26.2293 33.7026 17.0201C33.7026 7.81094 26.2284 0.336815 17.0192 0.336815ZM12.4981 24.1773L6.50876 18.188C5.85811 17.5373 5.85811 16.4863 6.50876 15.8356C7.15941 15.185 8.21046 15.185 8.86111 15.8356L13.6826 20.6404L25.1607 9.16228C25.8113 8.51164 26.8624 8.51164 27.5131 9.16228C28.1637 9.81293 28.1637 10.864 27.5131 11.5146L14.8504 24.1773C14.2165 24.8279 13.1487 24.8279 12.4981 24.1773Z" fill="white" fill-opacity="0.8"/>
</svg>
