<svg width="21" height="21" viewBox="0 0 21 21" fill="none" xmlns="http://www.w3.org/2000/svg">
<path d="M19.7169 1.33673C19.1475 0.767331 18.2277 0.767331 17.6583 1.33673L10.5189 8.46154L3.37945 1.32213C2.81005 0.75273 1.89025 0.75273 1.32085 1.32213C0.751449 1.89153 0.751449 2.81133 1.32085 3.38073L8.46026 10.5201L1.32085 17.6595C0.751449 18.2289 0.751449 19.1487 1.32085 19.7181C1.89025 20.2875 2.81005 20.2875 3.37945 19.7181L10.5189 12.5787L17.6583 19.7181C18.2277 20.2875 19.1475 20.2875 19.7169 19.7181C20.2863 19.1487 20.2863 18.2289 19.7169 17.6595L12.5775 10.5201L19.7169 3.38073C20.2717 2.82593 20.2717 1.89153 19.7169 1.33673Z" fill="#1C6F77"/>
</svg>
